<svg width="66" height="63" viewBox="0 0 66 63" fill="none" xmlns="http://www.w3.org/2000/svg">
<path d="M55.9833 48.8709C57.2666 46.8292 58.025 44.4667 58.025 41.9C58.025 34.6375 52.1625 28.775 44.9 28.775C37.6375 28.775 31.775 34.6375 31.775 41.9C31.775 49.1625 37.6375 55.025 44.8708 55.025C47.4375 55.025 49.8291 54.2667 51.8416 52.9834L60.9416 62.0834L65.0833 57.9417L55.9833 48.8709ZM44.9 49.1917C40.875 49.1917 37.6083 45.925 37.6083 41.9C37.6083 37.875 40.875 34.6084 44.9 34.6084C48.925 34.6084 52.1916 37.875 52.1916 41.9C52.1916 45.925 48.925 49.1917 44.9 49.1917ZM43.85 24.4C41.6916 24.4584 39.6208 24.925 37.725 25.7125L36.1208 23.2917L25.0375 41.3167L16.2583 31.05L5.67079 47.9959L0.916626 44.5834L15.5 21.25L24.25 31.4584L35.9166 12.5L43.85 24.4ZM51.4041 25.8584C49.5375 25.0417 47.525 24.5459 45.425 24.4292L60.3583 0.833374L65.0833 4.27504L51.4041 25.8584Z" fill="#6911AD"/>
</svg>
