<svg width="58" height="58" viewBox="0 0 58 58" fill="none" xmlns="http://www.w3.org/2000/svg">
<path d="M21.8041 11.5208C15.8541 18.2 11.7708 27.7958 11.3916 28.7L0.833313 24.1791L12.6458 12.3666C14.0166 10.9958 16 10.3833 17.925 10.7625L21.8041 11.5208ZM27.5791 42.5833C27.5791 42.5833 38.4875 38.0625 44.7583 31.7916C60.5083 16.0416 57.8833 3.73329 57.0375 0.962457C54.2666 0.0874568 41.9583 -2.50838 26.2083 13.2416C19.9375 19.5125 15.4166 30.4208 15.4166 30.4208L27.5791 42.5833ZM46.4791 36.1958C39.8 42.1458 30.2041 46.2291 29.3 46.6083L33.8208 57.1666L45.6333 45.3541C47.0042 43.9833 47.6166 42 47.2375 40.075L46.4791 36.1958ZM21.25 45.5C21.25 47.9208 20.2583 50.1083 18.6833 51.6833C15.2416 55.125 0.833313 57.1666 0.833313 57.1666C0.833313 57.1666 2.87498 42.7583 6.31665 39.3166C7.89165 37.7416 10.0791 36.75 12.5 36.75C17.3416 36.75 21.25 40.6583 21.25 45.5ZM32.9166 19.25C32.9166 16.0416 35.5416 13.4166 38.75 13.4166C41.9583 13.4166 44.5833 16.0416 44.5833 19.25C44.5833 22.4583 41.9583 25.0833 38.75 25.0833C35.5416 25.0833 32.9166 22.4583 32.9166 19.25Z" fill="#6911AD"/>
</svg>
