<svg width="60" height="60" viewBox="0 0 60 60" fill="none" xmlns="http://www.w3.org/2000/svg">
<path d="M50.6209 9.37921L46.5084 13.4917C50.7084 17.7209 53.3334 23.5542 53.3334 30C53.3334 42.8917 42.8917 53.3334 30 53.3334C17.1084 53.3334 6.66671 42.8917 6.66671 30C6.66671 18.1 15.5625 8.30004 27.0834 6.87087V12.7625C18.8 14.1625 12.5 21.3375 12.5 30C12.5 39.6542 20.3459 47.5 30 47.5C39.6542 47.5 47.5 39.6542 47.5 30C47.5 25.1584 45.5459 20.7834 42.3667 17.6334L38.2542 21.7459C40.3542 23.875 41.6667 26.7917 41.6667 30C41.6667 36.4459 36.4459 41.6667 30 41.6667C23.5542 41.6667 18.3334 36.4459 18.3334 30C18.3334 24.575 22.0667 20.0542 27.0834 18.7417V24.9834C25.3334 26.0042 24.1667 27.8417 24.1667 30C24.1667 33.2084 26.7917 35.8334 30 35.8334C33.2084 35.8334 35.8334 33.2084 35.8334 30C35.8334 27.8417 34.6667 25.975 32.9167 24.9834V0.833374H30C13.9 0.833374 0.833374 13.9 0.833374 30C0.833374 46.1 13.9 59.1667 30 59.1667C46.1 59.1667 59.1667 46.1 59.1667 30C59.1667 21.95 55.9 14.6584 50.6209 9.37921Z" fill="#6911AD"/>
</svg>
