<svg width="22" height="25" viewBox="0 0 22 25" fill="none" xmlns="http://www.w3.org/2000/svg">
<path d="M18.0713 17.8211L12.7675 23.1249C12.2987 23.5932 11.6632 23.8562 11.0006 23.8562C10.338 23.8562 9.70252 23.5932 9.23375 23.1249L3.92875 17.8211C2.53028 16.4226 1.57792 14.6408 1.19211 12.701C0.806304 10.7612 1.00437 8.75052 1.76126 6.92329C2.51815 5.09606 3.79988 3.5343 5.44436 2.43551C7.08884 1.33672 9.02221 0.750244 11 0.750244C12.9778 0.750244 14.9112 1.33672 16.5557 2.43551C18.2001 3.5343 19.4819 5.09606 20.2388 6.92329C20.9956 8.75052 21.1937 10.7612 20.8079 12.701C20.4221 14.6408 19.4697 16.4226 18.0713 17.8211Z" stroke="white" stroke-width="1.25" stroke-linecap="round" stroke-linejoin="round"/>
</svg>
